<svg width="208" height="359" viewBox="0 0 208 359" fill="none" xmlns="http://www.w3.org/2000/svg">
<g opacity="0.9">
<path d="M-52.8974 277.927C1.24008 322.659 81.3928 315.037 126.129 260.902C170.865 206.767 163.243 126.62 109.106 81.8878C54.9681 37.1558 -25.1847 44.7782 -69.9206 98.9129C-114.656 153.048 -107.035 233.195 -52.8974 277.927Z" stroke="#6BCFA5" stroke-width="0.5" stroke-miterlimit="10"/>
<path d="M125.64 256.948C121.643 261.938 117.502 266.581 113.031 270.825C101.946 281.321 88.9402 289.443 75.0102 294.722C65.8651 298.173 56.5074 300.56 47.1214 302.214C37.6253 303.878 28.0267 304.468 18.2346 303.757C6.80404 302.91 -4.5966 300.337 -15.4796 295.91C-22.8805 292.889 -29.9943 289.091 -36.7333 284.562C-41.0233 281.677 -45.137 278.456 -49.1767 274.991C-54.6268 270.285 -59.6652 265.234 -64.2565 259.919C-66.9122 256.837 -69.4354 253.687 -71.7587 250.448C-82.9692 234.871 -90.6129 217.218 -93.1949 198.6C-94.0048 192.732 -94.4168 186.812 -94.4983 180.861C-94.5774 173.771 -94.1832 166.691 -93.2251 159.697C-92.2769 152.745 -90.7372 145.876 -88.6312 139.121C-86.8757 133.495 -84.6665 127.966 -81.9807 122.628C-77.9867 114.693 -72.9292 107.129 -66.8778 100.083C-62.1295 94.5213 -56.968 89.5039 -51.5594 84.8936C-36.5382 72.1215 -19.7359 62.8754 -1.39888 58.0675C11.3153 54.751 24.5504 53.691 37.6397 54.7421C50.6037 55.7913 63.4467 58.9216 75.7275 64.022C87.2557 68.8048 98.3658 75.3218 108.579 83.5073C125.425 96.9952 137.666 114.059 145.278 132.825C152.952 151.822 155.746 172.517 153.28 192.822C150.514 215.67 141.021 237.752 125.603 256.993L125.64 256.948Z" stroke="#6BCFA5" stroke-width="0.5" stroke-miterlimit="10"/>
<path d="M125.137 252.981C121.29 257.944 117.444 262.628 113.199 266.906C102.663 277.475 89.8529 285.759 75.9949 290.92C66.857 294.301 57.6593 296.617 48.5101 298.568C39.3333 300.521 30.1321 301.49 20.4586 301.004C9.16449 300.422 -2.1581 297.939 -12.8739 293.371C-20.1424 290.282 -27.0589 286.368 -33.5153 281.743C-37.6179 278.784 -41.5415 275.517 -45.4035 272.022C-50.6031 267.32 -55.4835 262.324 -60.0093 257.113C-62.6295 254.111 -65.1173 251.041 -67.4452 247.9C-78.5783 232.843 -86.6074 215.811 -88.8301 197.464C-89.5167 191.723 -89.8329 185.933 -89.8764 180.09C-89.9424 173.137 -89.6753 166.18 -88.8942 159.37C-88.1105 152.586 -86.7879 145.919 -84.9316 139.312C-83.376 133.775 -81.3242 128.344 -78.7255 123.111C-74.8836 115.329 -69.8202 107.974 -63.7451 101.175C-58.9882 95.8487 -53.8661 91.0016 -48.5171 86.4942C-33.6775 74.0033 -17.801 64.3726 0.235125 59.4683C12.6812 56.1078 25.774 55.1584 38.5735 56.3759C51.2878 57.5738 63.7709 60.8632 75.8039 65.9871C87.0718 70.8084 98.0587 77.1982 108.155 85.0337C124.673 97.8444 136.696 114.22 144.264 132.393C151.893 150.769 154.718 170.906 152.266 190.64C149.497 212.877 139.835 234.059 125.177 252.964L125.137 252.981Z" stroke="#6BCFA5" stroke-width="0.5" stroke-miterlimit="10"/>
<path d="M124.633 249.015C120.924 253.964 117.374 258.69 113.354 263.002C103.369 273.671 90.7255 282.093 76.9672 287.133C67.8365 290.444 58.7837 292.677 49.9013 294.949C41.0438 297.192 32.2249 298.528 22.6826 298.252C11.5249 297.934 0.265217 295.529 -10.2808 290.847C-17.4319 287.678 -24.1236 283.645 -30.3099 278.939C-34.2374 275.922 -37.9309 272.591 -41.6704 269.071C-46.632 264.388 -51.357 259.418 -55.8146 254.34C-58.387 251.403 -60.8793 248.431 -63.1842 245.385C-74.2373 230.876 -82.6819 214.439 -84.5178 196.361C-85.0962 190.735 -85.2891 185.072 -85.3346 179.354C-85.3599 172.536 -85.2324 165.718 -84.6283 159.09C-84.0367 152.478 -82.9035 146.009 -81.2694 139.548C-79.8863 134.097 -78.0193 128.767 -75.5202 123.654C-71.8179 116.011 -66.7611 108.878 -60.6899 102.33C-55.9422 97.199 -50.8266 92.5749 -45.5523 88.1579C-30.8969 75.9205 -15.9409 65.9604 1.76416 60.9346C13.9545 57.515 26.8802 56.7065 39.4149 58.0603C51.8669 59.4219 64.0176 62.8678 75.7753 68.0178C86.7954 72.8626 97.619 79.1429 107.627 86.6256C123.813 98.7316 135.605 114.435 143.161 132.04C150.745 149.795 153.586 169.388 151.15 188.552C148.379 210.177 138.547 230.458 124.648 249.027L124.633 249.015Z" stroke="#6BCFA5" stroke-width="0.5" stroke-miterlimit="10"/>
<path d="M124.13 245.048C120.574 249.997 117.317 254.737 113.509 259.098C104.074 269.84 91.6134 278.439 77.9397 283.346C68.8162 286.586 59.9357 288.734 51.2901 291.304C42.7519 293.835 34.3428 295.535 24.8916 295.486C13.8828 295.419 2.6887 293.118 -7.6902 288.296C-14.7089 285.058 -21.2032 280.91 -27.107 276.108C-30.887 273.035 -34.3504 269.641 -37.9246 266.104C-42.6358 261.425 -47.2153 256.525 -51.6099 251.525C-54.1344 248.653 -56.6038 245.775 -58.9258 242.842C-69.9013 228.854 -78.759 213.039 -80.2079 195.23C-80.6631 189.731 -80.7452 184.211 -80.7677 178.587C-80.7799 171.907 -80.777 165.24 -80.3374 158.781C-79.9103 152.337 -78.9941 146.069 -77.6097 139.757C-76.4265 134.394 -74.7169 129.162 -72.3175 124.17C-68.7672 116.68 -63.7195 109.743 -57.6247 103.442C-52.8835 98.5342 -47.7797 94.0779 -42.5775 89.7788C-28.1187 77.8101 -14.0708 67.5055 3.3156 62.3433C15.2503 58.8646 28.0088 58.1969 40.2812 59.7144C52.456 61.2273 64.3019 64.8271 75.7718 70.0183C86.544 74.8866 97.2195 81.0698 107.11 88.2025C122.968 99.6312 134.514 114.649 142.055 131.658C149.566 148.795 152.48 167.84 150.044 186.42C147.27 207.435 137.284 226.828 124.13 245.048Z" stroke="#6BCFA5" stroke-width="0.5" stroke-miterlimit="10"/>
<path d="M123.654 241.079C120.235 246.015 117.274 250.796 113.692 255.191C104.805 266.007 92.5411 274.767 78.9394 279.557C69.8231 282.727 61.1026 284.803 52.6937 287.67C44.4873 290.476 36.448 292.558 27.1155 292.734C16.2431 292.931 5.12703 290.72 -5.09716 285.772C-11.9834 282.466 -18.2805 278.202 -23.9017 273.304C-27.5067 270.173 -30.755 266.702 -34.1791 263.138C-38.6523 258.478 -43.0613 253.618 -47.3904 248.722C-49.867 245.915 -52.341 243.135 -54.64 240.297C-65.5355 226.856 -74.7936 211.649 -75.8708 194.097C-76.2027 188.725 -76.1891 183.334 -76.186 177.834C-76.185 171.291 -76.2942 164.759 -76.0467 158.471C-75.7965 152.211 -75.0848 146.129 -73.9503 139.965C-72.967 134.691 -71.4147 129.557 -69.1149 124.686C-65.7017 117.362 -60.6631 110.62 -54.5571 104.582C-49.81 99.882 -44.7277 95.636 -39.6003 91.4274C-25.3257 79.7123 -12.216 69.0382 4.8721 63.807C16.5485 60.2417 29.1398 59.7149 41.15 61.3962C53.075 63.0578 64.5761 66.8292 75.7831 72.0313C86.3076 76.9232 96.8197 82.9968 106.621 89.7768C122.135 100.516 133.503 114.829 140.991 131.287C148.497 147.785 151.401 166.29 148.967 184.314C146.191 204.718 136.051 223.222 123.642 241.094L123.654 241.079Z" stroke="#6BCFA5" stroke-width="0.5" stroke-miterlimit="10"/>
<path d="M123.151 237.113C119.869 242.035 117.231 246.855 113.848 251.287C105.54 262.201 93.4138 271.101 79.8967 275.757C70.7876 278.857 62.2244 280.836 54.0824 284.024C46.2078 287.104 38.5534 289.58 29.3521 289.966C18.616 290.428 7.59046 288.292 -2.46395 283.231C-9.22043 279.829 -15.3175 275.476 -20.6562 270.482C-24.0861 267.293 -27.1169 263.774 -30.3908 260.181C-34.6136 255.525 -38.8646 250.72 -43.1405 245.944C-45.5843 243.189 -48.0203 240.517 -50.3238 237.777C-61.1419 224.856 -70.8129 210.272 -71.5184 192.976C-71.727 187.731 -71.6052 182.455 -71.5916 177.065C-71.5651 170.645 -71.7988 164.264 -71.7158 158.144C-71.6426 152.067 -71.1505 146.159 -70.2231 140.154C-69.4273 134.953 -68.0297 129.945 -65.8598 125.169C-62.571 117.996 -57.5816 111.467 -51.4395 105.662C-46.6989 101.184 -41.6409 97.1214 -36.5731 93.0157C-22.4952 81.5692 -10.3086 70.5381 6.47595 65.1829C17.8815 61.546 30.3208 61.1726 42.0537 63.0051C53.7165 64.8305 64.8853 68.7584 75.8169 73.9867C86.1086 78.9144 96.4575 84.8786 106.142 91.3085C121.313 101.358 132.477 114.995 139.922 130.86C147.37 146.753 150.333 164.696 147.898 182.137C145.119 201.93 134.825 219.546 123.16 237.07L123.151 237.113Z" stroke="#6BCFA5" stroke-width="0.5" stroke-miterlimit="10"/>
<path d="M122.647 233.146C119.519 238.068 117.161 242.917 114.003 247.383C106.231 258.385 94.314 267.432 80.869 271.97C71.7946 274.997 63.3737 276.865 55.4586 280.394C47.9157 283.748 40.6311 286.605 31.5485 287.216C20.9614 287.928 9.9863 285.884 0.114128 280.695C-6.52501 277.212 -12.3973 272.741 -17.4507 267.678C-20.7056 264.43 -23.5338 260.851 -26.6452 257.215C-30.63 252.578 -34.7256 247.799 -38.9208 243.141C-41.3292 240.466 -43.7573 237.877 -46.0379 235.231C-56.7635 222.844 -66.875 208.884 -67.1811 191.842C-67.2815 186.713 -67.0489 181.579 -67.0097 176.311C-66.9701 170.029 -67.3283 163.798 -67.4099 157.847C-67.5163 151.926 -67.2261 146.231 -66.5484 140.375C-65.9526 135.262 -64.7123 130.353 -62.642 125.698C-59.5054 118.678 -54.51 112.356 -48.3718 106.802C-43.6403 102.52 -38.5889 98.6794 -33.6108 94.6517C-19.7171 83.4588 -8.46611 72.0858 8.01747 66.6341C19.1674 62.9381 31.452 62.6904 42.9076 64.6743C54.3081 66.6634 65.1445 70.7478 75.8008 76.0022C85.8322 80.9686 96.0303 86.8081 105.626 92.8853C120.455 102.272 131.398 115.195 138.831 130.492C146.234 145.764 149.226 163.148 146.795 180.033C144.013 199.215 133.579 215.956 122.644 233.119L122.647 233.146Z" stroke="#6BCFA5" stroke-width="0.5" stroke-miterlimit="10"/>
<path d="M122.144 229.18C119.153 234.088 117.104 238.964 114.171 243.464C106.963 254.551 95.2143 263.763 81.8538 268.168C72.7867 271.125 64.5382 272.907 56.8623 276.76C49.6637 280.373 42.7489 283.612 33.7726 284.463C23.3067 285.427 12.4248 283.486 2.70731 278.171C-3.79941 274.621 -9.47432 270.033 -14.2453 264.874C-17.3127 261.553 -19.9356 257.94 -22.8969 254.276C-26.6437 249.658 -30.5813 244.934 -34.6985 240.365C-37.0591 237.756 -39.4642 235.261 -41.7343 232.726C-52.3548 220.857 -62.9068 207.522 -62.8261 190.749C-62.8033 185.746 -62.4598 180.755 -62.4128 175.57C-62.3475 169.41 -62.8303 163.33 -63.1039 157.55C-63.3873 151.812 -63.3167 146.291 -62.8738 140.596C-62.4779 135.572 -61.3949 130.761 -59.4242 126.226C-56.4397 119.359 -51.4534 113.233 -45.2916 107.927C-40.5667 103.867 -35.5394 100.21 -30.621 96.2851C-16.9239 85.3609 -6.56855 73.6283 9.58394 68.0552C20.4781 64.3001 32.5956 64.1933 43.8014 66.3259C54.9371 68.4512 65.4562 72.7046 75.8372 77.9851C85.6208 82.9749 95.6556 88.7049 105.162 94.4294C119.635 103.142 130.388 115.374 137.778 130.078C145.135 144.729 148.157 161.555 145.741 177.869C142.956 196.44 132.399 212.317 122.178 229.107L122.144 229.18Z" stroke="#6BCFA5" stroke-width="0.5" stroke-miterlimit="10"/>
<path d="M121.64 225.213C118.802 230.121 117.034 235.026 114.327 239.56C107.667 250.72 96.1171 260.121 82.8261 264.382C73.7537 267.283 65.6875 268.937 58.251 273.114C51.3691 276.989 44.8543 280.635 36.0091 281.695C25.6796 282.925 14.8757 281.073 5.32539 275.617C-1.05153 271.971 -6.52914 267.268 -11.0274 262.054C-13.9348 258.663 -16.3401 255.002 -19.1512 251.31C-22.6601 246.711 -26.4272 242.026 -30.4788 237.562C-32.7915 235.018 -35.2012 232.621 -37.4608 230.196C-48.0039 218.847 -58.9813 206.15 -58.5013 189.631C-58.3552 184.755 -57.9035 179.879 -57.8433 174.831C-57.7649 168.809 -58.3598 162.865 -58.8104 157.268C-59.2584 151.699 -59.4198 146.367 -59.1964 140.845C-58.9881 135.894 -58.0749 131.196 -56.2038 126.782C-53.3589 120.054 -48.3943 114.138 -42.2062 109.107C-37.4753 105.255 -32.4696 101.808 -27.626 97.9737C-14.098 87.3155 -4.69328 75.2286 11.1583 69.559C21.7968 65.7448 33.732 65.7663 44.6756 68.0626C55.5491 70.3517 65.7358 74.7616 75.8414 80.0682C85.3772 85.0815 95.2364 90.7171 104.654 96.0889C118.771 104.127 129.317 115.656 136.68 129.779C143.992 143.809 147.059 160.09 144.63 175.835C141.855 193.78 131.149 208.824 121.655 225.225L121.64 225.213Z" stroke="#6BCFA5" stroke-width="0.5" stroke-miterlimit="10"/>
<path d="M121.149 221.231C118.464 226.139 116.988 231.057 114.494 235.641C108.384 246.874 97.0174 256.452 83.8109 260.58C74.7582 263.396 66.8342 264.939 59.6547 269.481C53.102 273.602 46.9596 277.657 38.2331 278.943C28.0525 280.422 17.3142 278.675 7.91856 273.093C1.67405 269.379 -3.60624 264.56 -7.82191 259.25C-10.5543 255.801 -12.742 252.091 -15.3905 248.356C-18.6463 243.789 -22.2731 239.118 -26.2565 234.787C-28.5214 232.307 -30.9081 230.005 -33.1722 227.678C-43.6229 216.862 -55.0407 204.79 -54.1738 188.54C-53.9045 183.792 -53.3571 179.045 -53.2589 174.105C-53.1673 168.22 -53.8743 162.412 -54.5019 156.999C-55.1268 151.613 -55.5079 146.454 -55.5067 141.079C-55.5134 136.204 -54.7424 131.616 -52.971 127.323C-50.2781 120.748 -45.32 115.055 -39.1109 110.244C-34.4017 106.603 -29.4052 103.351 -24.6212 99.6196C-11.2898 89.2301 -2.79315 76.7986 12.7273 71.0076C23.1101 67.1343 34.8906 67.2817 45.557 69.7293C56.1682 72.1821 66.0226 76.7486 75.8502 82.0537C85.1258 87.1056 94.8216 92.6316 104.177 97.6481C117.926 105.026 128.279 115.838 135.629 129.392C142.895 142.802 145.993 158.524 143.579 173.698C140.786 191.02 129.986 205.226 121.192 221.241L121.149 221.231Z" stroke="#6BCFA5" stroke-width="0.5" stroke-miterlimit="10"/>
<path d="M120.646 217.265C118.113 222.172 116.931 227.104 114.65 231.737C109.088 243.043 97.8901 252.786 84.7833 256.793C75.7377 259.539 67.9835 260.969 61.0309 265.85C54.8073 270.218 49.0525 274.695 40.4296 276.193C30.3854 277.936 19.7251 276.28 10.4966 270.557C4.38455 266.775 -0.68597 261.824 -4.63154 256.434C-7.18892 252.926 -9.17399 249.155 -11.6724 245.392C-14.6902 240.844 -18.1466 236.213 -22.0644 231.987C-24.2938 229.587 -26.6576 227.38 -28.9139 225.135C-39.272 214.852 -51.1302 203.406 -49.8641 187.409C-49.499 182.791 -48.8284 178.171 -48.7196 173.341C-48.5874 167.592 -49.4615 161.924 -50.2536 156.679C-51.0582 151.449 -51.6562 146.492 -51.8897 141.277C-52.0963 136.491 -51.4827 132.002 -49.826 127.817C-47.2701 121.407 -42.3363 115.897 -36.116 111.349C-31.4008 107.916 -26.4259 104.874 -21.729 101.248C-8.58187 91.1125 -1.00574 78.3516 14.1961 72.4241C24.3232 68.4917 35.9365 68.7799 46.3256 71.3788C56.672 73.9678 66.1967 78.7183 75.7489 84.0496C84.7766 89.125 94.2968 94.5565 103.563 99.2203C116.943 105.939 127.117 116.045 134.425 129.006C141.631 141.783 144.789 156.971 142.362 171.577C139.567 188.288 128.645 201.658 120.563 217.273L120.646 217.265Z" stroke="#6BCFA5" stroke-width="0.5" stroke-miterlimit="10"/>
<path d="M120.157 213.311C117.778 218.217 116.876 223.178 114.82 227.846C109.807 239.225 98.8054 249.13 85.7556 253.006C76.7172 255.682 69.1177 256.986 62.4196 262.204C56.5251 266.819 51.1427 271.705 42.651 273.412C32.7557 275.406 22.1609 273.854 13.0872 268.006C7.09244 264.143 2.23432 259.089 -1.4287 253.602C-3.81104 250.036 -5.59354 246.205 -7.94183 242.413C-10.7341 237.899 -14.02 233.308 -17.8598 229.171C-20.0414 226.836 -22.3973 224.712 -24.643 222.577C-34.9112 212.8 -47.2224 201.993 -45.5419 186.263C-45.0535 181.772 -44.2596 177.28 -44.1528 172.575C-44.0074 166.963 -44.9937 161.431 -45.9628 156.37C-46.9443 151.323 -47.7619 146.539 -48.215 141.499C-48.6242 136.773 -48.1653 132.41 -46.6082 128.345C-44.192 122.074 -39.2797 116.774 -33.0207 112.486C-28.3271 109.263 -23.3338 106.415 -18.7242 102.894C-5.77363 93.027 0.87937 79.9092 15.7802 73.8852C25.6517 69.8937 37.0828 70.3103 47.2371 73.0703C57.3214 75.8231 66.5261 80.7151 75.7905 86.0875C84.5705 91.1863 93.93 96.5359 103.104 100.819C116.103 106.894 126.097 116.267 133.379 128.675C140.528 140.846 143.728 155.46 141.316 169.496C138.518 185.596 127.502 198.127 120.105 213.344L120.157 213.311Z" stroke="#6BCFA5" stroke-width="0.5" stroke-miterlimit="10"/>
<path d="M119.654 209.344C117.427 214.25 116.818 219.225 114.988 223.927C110.527 235.406 99.7055 245.461 86.7528 249.189C77.7216 251.795 70.2768 252.973 63.8357 258.556C58.2553 263.405 53.288 268.709 44.9025 270.657C35.1436 272.916 24.6269 271.454 15.7354 265.477C9.87304 261.546 5.22469 256.361 1.83176 250.793C-0.375544 247.169 -1.94039 243.289 -4.12609 239.454C-6.68035 234.959 -9.7958 230.407 -13.5825 226.391C-15.7313 224.108 -18.0616 222.106 -20.2995 220.054C-30.4751 210.81 -43.2543 200.631 -41.147 185.152C-40.5504 180.776 -39.6457 176.426 -39.5159 171.816C-39.345 166.327 -40.4557 160.945 -41.6018 156.068C-42.7479 151.19 -43.8251 146.597 -44.4729 141.699C-45.0971 137.05 -44.768 132.782 -43.323 128.853C-41.0588 122.735 -36.1557 117.631 -29.8855 113.606C-25.186 110.591 -20.2294 107.94 -15.6794 104.523C-2.91303 94.9089 2.81946 81.4615 17.4017 75.3011C27.0174 71.2505 38.2938 71.7929 48.1709 74.7042C58.0054 77.6057 66.8653 82.6692 75.8668 88.0527C84.3989 93.175 93.5703 98.4451 102.68 102.346C115.298 107.776 125.111 116.416 132.365 128.243C139.469 139.793 142.699 153.849 140.305 167.341C137.504 182.831 126.394 194.524 119.681 209.342L119.654 209.344Z" stroke="#6BCFA5" stroke-width="0.5" stroke-miterlimit="10"/>
<path d="M119.15 205.378C117.091 210.296 116.748 215.287 115.144 220.023C111.231 231.575 100.591 241.779 87.7251 245.402C78.7012 247.938 71.396 248.977 65.212 254.925C59.9581 259.993 55.3658 265.734 47.099 267.907C37.4765 270.43 27.0378 269.058 18.301 262.955C12.556 258.944 8.12009 253.656 5.00971 247.992C2.96237 244.296 1.60271 240.383 -0.420405 236.505C-2.74912 232.045 -5.69675 227.504 -9.4028 223.605C-11.5037 221.388 -13.8261 219.469 -16.0659 217.542C-26.1366 208.815 -39.3838 199.264 -36.8621 184.051C-36.1698 179.805 -35.1418 175.582 -34.9864 171.095C-34.8024 165.743 -36.0377 160.513 -37.3509 155.776C-38.674 151.081 -39.9708 146.662 -40.8533 141.926C-41.6925 137.352 -41.5056 133.195 -40.1478 129.372C-38.0357 123.407 -33.1542 118.513 -26.8479 114.721C-22.17 111.916 -17.2074 109.473 -12.7322 106.146C-0.162456 96.8012 4.66197 83.0093 18.9282 76.7399C28.2882 72.6302 39.3975 73.3134 48.9973 76.3761C58.5695 79.4413 67.097 84.6613 75.8232 90.0709C84.0951 95.2318 93.1032 100.392 102.124 103.941C114.361 108.726 123.98 116.648 131.234 127.892C138.292 138.821 141.568 152.332 139.161 165.255C136.357 180.133 125.184 191.013 119.138 205.393L119.15 205.378Z" stroke="#6BCFA5" stroke-width="0.5" stroke-miterlimit="10"/>
<path d="M118.659 201.396C116.768 206.326 116.703 211.319 115.312 216.104C111.947 227.729 101.491 238.11 88.7099 241.6C79.6931 244.066 72.54 244.952 66.6281 251.277C61.6732 256.566 57.4986 262.754 49.3355 265.139C39.8618 267.912 29.4736 266.633 20.9191 260.401C15.3065 256.322 11.0803 250.903 8.24004 245.157C6.38018 241.389 5.21064 237.43 3.35273 233.536C1.24954 229.11 -1.51516 224.594 -5.15563 220.8C-7.20865 218.647 -9.50812 216.823 -11.7374 215.006C-21.7156 206.812 -35.4308 197.889 -32.4823 182.928C-31.6667 178.809 -30.5305 174.7 -30.3495 170.336C-30.1523 165.122 -31.4997 160.027 -32.9899 155.473C-34.4926 150.935 -36.0339 146.719 -37.1085 142.154C-38.1752 137.672 -38.1181 133.61 -36.8599 129.907C-34.8999 124.096 -30.0276 119.398 -23.695 115.881C-19.0262 113.271 -14.0853 111.039 -9.66965 107.814C2.71588 98.7229 6.60471 84.5892 20.5674 78.1958C29.6717 74.0269 40.6138 74.851 49.9487 78.0499C59.2437 81.2664 67.4539 86.6554 75.9048 92.0911C83.9288 97.2755 92.7363 102.372 101.705 105.522C113.564 109.69 123.014 116.864 130.226 127.515C137.211 137.826 140.544 150.776 138.152 163.128C135.346 177.396 124.109 187.462 118.732 201.431L118.659 201.396Z" stroke="#6BCFA5" stroke-width="0.5" stroke-miterlimit="10"/>
<path d="M118.156 197.43C116.433 202.371 116.633 207.38 115.467 212.2C112.652 223.898 102.361 234.416 89.6822 237.813C80.6851 240.193 73.6441 240.944 68.0043 247.646C63.3484 253.157 59.5765 259.779 51.5595 262.386C42.2223 265.424 31.9121 264.235 23.5123 257.878C18.017 253.718 14.0157 248.18 11.4455 242.353C9.7607 238.526 8.79636 234.534 7.09841 230.57C5.22075 226.178 2.63896 221.686 -0.948386 218.012C-2.96599 215.939 -5.25758 214.198 -7.46394 212.476C-17.3522 204.788 -31.5328 196.52 -28.1574 181.81C-27.2461 177.82 -25.9715 173.852 -25.7952 169.585C-25.5724 164.493 -27.0443 159.549 -28.7115 155.179C-30.3912 150.824 -32.1796 146.785 -33.4613 142.378C-34.7431 137.971 -34.8282 134.021 -33.6848 130.426C-31.8644 124.753 -27.0136 120.265 -20.6574 116.995C-15.9951 114.609 -11.0634 112.572 -6.73754 109.425C5.46643 100.615 8.43212 86.1244 22.0788 79.6221C30.9274 75.3941 41.6997 76.3316 50.7751 79.7217C59.8202 83.087 67.6981 88.6325 75.8737 94.0942C83.6499 99.3021 92.2692 104.319 101.174 107.086C112.627 110.64 121.921 117.051 129.12 127.134C136.06 136.824 139.438 149.228 137.034 161.012C134.225 174.668 122.924 183.921 118.201 197.467L118.156 197.43Z" stroke="#6BCFA5" stroke-width="0.5" stroke-miterlimit="10"/>
<path d="M117.653 193.463C116.097 198.417 116.56 203.415 115.622 208.296C113.343 220.082 103.261 230.747 90.6546 234.026C81.6647 236.336 74.7632 236.949 69.3956 244.028C65.0387 249.761 61.6694 256.817 53.7711 259.649C44.5552 262.939 34.3257 261.867 26.1054 255.354C20.7426 251.126 16.9511 245.457 14.651 239.549C13.1412 235.664 12.367 231.626 10.8467 227.631C9.19455 223.273 6.78324 218.821 3.27392 215.237C1.30419 213.229 -0.964452 211.582 -3.17538 209.958C-12.9587 202.788 -27.6224 195.135 -23.8175 180.704C-22.798 176.829 -21.4126 173.003 -21.1982 168.843C-20.9623 163.89 -22.5463 159.081 -24.4056 154.882C-26.2498 150.695 -28.2978 146.848 -29.7742 142.584C-31.2834 138.269 -31.4984 134.414 -30.4545 130.939C-28.7862 125.42 -23.9446 121.127 -17.5772 118.12C-12.9241 115.929 -8.01392 114.103 -3.74774 111.059C8.27204 102.502 10.3172 87.6822 23.6452 81.0434C32.2382 76.7563 42.8433 77.8346 51.6538 81.361C60.4368 84.89 67.9823 90.592 75.8825 96.0798C83.4109 101.311 91.8322 106.291 100.67 108.648C111.732 111.6 120.842 117.251 128.026 126.738C134.908 135.822 138.329 147.652 135.94 158.866C133.128 171.911 121.791 180.348 117.695 193.473L117.653 193.463Z" stroke="#6BCFA5" stroke-width="0.5" stroke-miterlimit="10"/>
<path d="M117.149 189.497C115.789 194.459 116.49 199.477 115.79 204.377C114.06 216.236 104.162 227.078 91.6394 230.224C82.6567 232.464 75.8523 232.929 70.7968 240.367C66.7264 246.336 63.7996 253.809 55.9925 256.869C46.9255 260.409 36.7616 259.442 28.696 252.803C23.463 248.479 19.8714 242.721 17.8538 236.718C16.5191 232.774 15.935 228.69 14.5897 224.637C13.148 220.301 10.9196 215.873 7.4759 212.393C5.55404 210.45 3.29329 208.887 1.09287 207.373C-8.58547 200.72 -23.7447 193.698 -19.4979 179.53C-18.3826 175.785 -16.8616 172.071 -16.6491 168.037C-16.3876 163.206 -18.1086 158.563 -20.1324 154.533C-22.1687 150.517 -24.4337 146.87 -26.1172 142.765C-27.869 138.528 -28.2137 134.769 -27.2544 131.428C-25.7382 126.061 -20.9208 121.952 -14.4996 119.218C-9.86813 117.237 -4.95203 115.618 -0.760568 112.665C11.0626 104.377 12.1997 89.2122 25.1966 82.4519C33.5214 78.1208 43.9719 79.3249 52.5051 83.0026C61.0107 86.6829 68.2239 92.5414 75.8762 98.0528C83.1568 103.308 91.3926 108.236 100.164 110.183C110.837 112.56 119.774 117.408 126.93 126.314C133.739 134.78 137.233 146.061 134.831 156.707C132.014 169.114 120.659 176.774 117.174 189.466L117.149 189.497Z" stroke="#6BCFA5" stroke-width="0.5" stroke-miterlimit="10"/>
<path d="M116.658 185.515C115.493 190.487 116.432 195.523 115.958 200.458C114.749 212.393 105.059 223.382 92.609 226.409C83.646 228.564 76.9537 228.893 72.1703 236.708C68.3989 242.9 65.8748 250.806 58.1988 254.076C49.2682 257.881 39.1698 257.019 31.2839 250.224C26.1708 245.847 22.8015 239.943 21.0416 233.874C19.8943 229.857 19.4878 225.742 18.3203 221.658C17.0917 217.371 15.0586 212.953 11.668 209.593C9.79402 207.715 7.55623 206.246 5.35123 204.83C-4.22213 198.695 -19.892 192.291 -15.1882 178.4C-13.9647 174.769 -12.3328 171.198 -12.0823 167.271C-11.7926 162.59 -13.6408 158.07 -15.8416 154.223C-18.0424 150.376 -20.567 146.92 -22.4577 142.974C-24.4369 138.828 -24.9114 135.164 -24.0518 131.944C-22.6876 126.731 -17.8794 122.816 -11.447 120.345C-6.82465 118.56 -1.93016 117.151 2.20166 114.301C13.8406 106.267 14.0572 90.7724 26.7506 83.8881C34.8197 79.4979 45.1154 80.8278 53.3713 84.6567C61.6272 88.4857 68.4956 94.5159 75.8726 100.053C82.8929 105.347 90.9582 110.236 99.6471 111.759C109.917 113.55 118.683 117.622 125.839 125.945C132.603 133.791 136.114 144.528 133.74 154.588C130.92 166.384 119.571 173.238 116.671 185.5L116.658 185.515Z" stroke="#6BCFA5" stroke-width="0.5" stroke-miterlimit="10"/>
<path d="M116.17 181.561C115.2 186.542 116.39 191.583 116.129 196.566C115.469 208.574 105.962 219.74 93.5965 222.635C84.6407 224.72 78.0454 224.901 73.5768 233.103C70.0768 239.518 67.9979 247.869 60.4407 251.363C51.6588 255.418 41.6261 254.661 33.9099 247.752C28.9142 243.295 25.7697 237.273 24.2799 231.122C23.3076 227.047 23.0762 222.874 22.0863 218.759C21.0682 214.494 19.2331 210.112 15.9081 206.858C14.0544 205.047 11.8396 203.674 9.6451 202.368C0.17409 196.723 -16.0037 190.964 -10.843 177.349C-9.52376 173.848 -7.7535 170.416 -7.50758 166.587C-7.20473 162.044 -9.18007 157.648 -11.5578 153.984C-13.9356 150.32 -16.7198 147.056 -18.8052 143.253C-21.0119 139.198 -21.6162 135.63 -20.8562 132.53C-19.6441 127.47 -14.845 123.751 -8.38903 121.528C-3.77581 119.937 1.12462 118.737 5.16925 115.992C16.6116 108.226 15.9378 92.4276 28.2824 85.3819C36.1109 80.9451 46.2093 82.3909 54.2305 86.381C62.2242 90.3737 68.7602 96.5604 75.8618 102.124C82.6344 107.441 90.5043 112.32 99.1361 113.391C109.021 114.635 117.597 117.892 124.738 125.619C131.444 132.859 134.998 143.023 132.626 152.526C129.804 163.711 118.461 169.759 116.145 181.591L116.17 181.561Z" stroke="#6BCFA5" stroke-width="0.5" stroke-miterlimit="10"/>
<path d="M115.666 177.594C114.892 182.585 116.32 187.644 116.284 192.662C116.173 204.743 106.85 216.086 94.5689 218.848C85.6202 220.863 79.1219 220.895 74.9654 229.457C71.7369 236.097 70.0881 244.879 62.6496 248.598C54.0042 252.918 44.0494 252.25 36.5004 245.201C31.6372 240.676 28.7024 234.523 27.4827 228.29C26.6855 224.157 26.6318 219.954 25.8444 215.778C25.0367 211.535 23.3721 207.192 20.1402 204.04C18.3344 202.294 16.1426 201.015 13.9586 199.82C4.59253 194.693 -12.0959 189.552 -6.49322 176.2C-5.06584 172.815 -3.17232 169.51 -2.90082 165.803C-2.57238 161.383 -4.67225 157.137 -7.227 153.657C-9.7693 150.161 -12.8255 147.103 -15.0781 143.441C-17.5398 139.48 -18.2464 136.005 -17.6011 133.013C-16.5411 128.106 -11.7662 124.57 -5.26888 122.635C-0.649727 121.252 4.21402 120.25 8.19901 117.608C19.4571 110.096 17.8478 93.955 29.9039 86.7978C37.4767 82.3019 47.4204 83.8734 55.1519 88.0299C62.8683 92.174 69.0994 98.5145 75.9257 104.104C82.4504 109.445 90.125 114.315 98.7147 114.945C108.214 115.642 116.589 118.099 123.743 125.227C130.363 131.864 134.002 141.464 131.63 150.384C128.805 160.959 117.481 166.185 115.736 177.602L115.666 177.594Z" stroke="#6BCFA5" stroke-width="0.5" stroke-miterlimit="10"/>
<path d="M-14.411 133.544C-14.9567 136.415 -14.1327 139.81 -11.431 143.665C-8.96872 147.196 -5.68308 150.038 -2.94871 153.362C-0.214352 156.687 1.99499 160.769 1.65342 165.052C1.35633 168.636 -0.660467 171.814 -2.18359 175.07C-8.27343 188.12 8.95316 192.641 18.2168 197.277C20.4054 198.375 22.5743 199.559 24.3322 201.239C27.511 204.272 28.9652 208.593 29.5624 212.814C30.1721 217.021 30.0357 221.27 30.673 225.474C31.6101 231.802 34.3325 238.059 39.0784 242.665C46.4727 249.84 56.3494 250.418 64.8584 245.833C72.1783 241.889 73.3969 232.675 76.3415 225.826C80.1833 216.878 86.5846 216.993 95.526 215.048C107.735 212.405 116.849 200.915 116.425 188.746C116.234 183.694 114.612 178.625 115.163 173.628C116.363 162.624 127.64 158.222 130.468 148.258C132.838 139.894 129.157 130.867 122.594 124.836C115.468 118.288 107.284 116.675 98.1556 116.512C89.6531 116.36 82.1589 111.486 75.8794 106.095C69.3435 100.492 63.4572 93.9795 55.9905 89.6868C48.5239 85.3941 38.7473 83.6817 31.4302 88.2367C19.7053 95.5153 22.2227 112 11.1612 119.244C7.25089 121.795 2.39367 122.575 -2.21633 123.762C-8.72488 125.435 -13.4906 128.776 -14.411 133.544Z" stroke="#6BCFA5" stroke-width="0.5" stroke-miterlimit="10"/>
</g>
</svg>
