<svg width="250" height="394" viewBox="0 0 250 394" fill="none" xmlns="http://www.w3.org/2000/svg">
<g opacity="0.9">
<path d="M56.1393 118.26C43.9852 153.296 95.7994 203.087 171.87 229.471C247.94 255.855 319.459 248.841 331.614 213.804C343.768 178.768 291.953 128.977 215.883 102.593C139.813 76.2089 68.2934 83.2232 56.1393 118.26Z" stroke="#6BCFA5" stroke-width="0.5" stroke-miterlimit="10"/>
<path d="M59.3036 127.102C48.9307 161.762 101.536 208.116 176.802 230.637C252.068 253.159 321.491 243.319 331.864 208.66C342.237 174 289.631 127.646 214.366 105.124C139.1 82.6031 69.6765 92.4429 59.3036 127.102Z" stroke="#6BCFA5" stroke-width="0.5" stroke-miterlimit="10"/>
<path d="M212.804 107.605C138.355 88.9485 71.0365 101.619 62.4425 135.906C53.8484 170.193 107.234 213.112 181.682 231.769C256.13 250.426 323.449 237.755 332.043 203.468C340.637 169.181 287.252 126.262 212.804 107.605Z" stroke="#6BCFA5" stroke-width="0.5" stroke-miterlimit="10"/>
<path d="M211.272 110.119C137.632 95.3255 72.412 110.826 65.5975 144.741C58.7831 178.655 112.955 218.14 186.594 232.933C260.233 247.726 325.454 232.225 332.268 198.311C339.083 164.397 284.911 124.912 211.272 110.119Z" stroke="#6BCFA5" stroke-width="0.5" stroke-miterlimit="10"/>
<path d="M209.758 112.626C136.921 101.69 73.7914 120.011 68.7548 153.547C63.7181 187.084 118.681 223.136 191.519 234.072C264.356 245.008 327.485 226.687 332.522 193.151C337.558 159.614 282.595 123.562 209.758 112.626Z" stroke="#6BCFA5" stroke-width="0.5" stroke-miterlimit="10"/>
<path d="M208.265 115.115C136.242 108.042 75.2141 129.198 71.9553 162.368C68.6965 195.538 124.441 228.162 196.464 235.235C268.487 242.308 329.516 221.153 332.774 187.983C336.033 154.813 280.289 122.189 208.265 115.115Z" stroke="#6BCFA5" stroke-width="0.5" stroke-miterlimit="10"/>
<path d="M206.724 117.629C135.505 114.421 76.5729 138.402 75.0949 171.191C73.6169 203.981 130.153 233.163 201.371 236.371C272.59 239.579 331.522 215.598 333 182.809C334.478 150.019 277.942 120.837 206.724 117.629Z" stroke="#6BCFA5" stroke-width="0.5" stroke-miterlimit="10"/>
<path d="M205.21 120.128C134.806 120.78 77.9751 147.59 78.2746 180.011C78.574 212.431 135.89 238.184 206.294 237.531C276.698 236.879 333.529 210.069 333.23 177.649C332.93 145.228 275.614 119.475 205.21 120.128Z" stroke="#6BCFA5" stroke-width="0.5" stroke-miterlimit="10"/>
<path d="M203.663 122.658C134.072 127.183 79.3456 156.826 81.4286 188.867C83.5116 220.909 141.615 243.215 211.206 238.689C280.797 234.164 335.523 204.521 333.44 172.48C331.357 140.439 273.254 118.133 203.663 122.658Z" stroke="#6BCFA5" stroke-width="0.5" stroke-miterlimit="10"/>
<path d="M202.134 125.153C133.348 133.538 80.715 166.009 84.5754 197.678C88.4357 229.348 147.328 248.223 216.114 239.838C284.9 231.453 337.533 198.983 333.673 167.313C329.812 135.644 270.921 116.768 202.134 125.153Z" stroke="#6BCFA5" stroke-width="0.5" stroke-miterlimit="10"/>
<path d="M200.617 127.635C132.642 139.878 82.1076 175.179 87.7456 206.482C93.3836 237.785 153.059 253.237 221.034 240.994C289.009 228.751 339.544 193.45 333.906 162.147C328.268 130.844 268.592 115.392 200.617 127.635Z" stroke="#6BCFA5" stroke-width="0.5" stroke-miterlimit="10"/>
<path d="M199.075 130.156C131.911 146.268 83.4797 184.402 90.8997 215.331C98.3197 246.26 158.781 258.273 225.945 242.161C293.108 226.049 341.54 187.915 334.12 156.986C326.7 126.057 266.238 114.044 199.075 130.156Z" stroke="#6BCFA5" stroke-width="0.5" stroke-miterlimit="10"/>
<path d="M197.562 132.66C131.207 152.63 84.8692 193.584 94.0641 224.135C103.259 254.685 164.505 263.262 230.86 243.292C297.216 223.322 343.553 182.368 334.358 151.817C325.163 121.267 263.918 112.69 197.562 132.66Z" stroke="#6BCFA5" stroke-width="0.5" stroke-miterlimit="10"/>
<path d="M196.015 135.185C130.468 159.028 86.2311 202.818 97.2083 232.992C108.185 263.167 170.22 268.3 235.767 244.457C301.313 220.614 345.55 176.824 334.573 146.65C323.596 116.475 261.561 111.342 196.015 135.185Z" stroke="#6BCFA5" stroke-width="0.5" stroke-miterlimit="10"/>
<path d="M194.506 137.715C129.768 165.42 87.6291 212.043 100.387 241.85C113.144 271.657 175.966 273.36 240.704 245.655C305.442 217.95 347.581 171.327 334.823 141.521C322.066 111.714 259.244 110.01 194.506 137.715Z" stroke="#6BCFA5" stroke-width="0.5" stroke-miterlimit="10"/>
<path d="M193.008 140.208C129.075 171.776 89.0284 221.223 103.561 250.652C118.094 280.081 181.703 278.347 245.635 246.779C309.568 215.211 349.615 165.763 335.082 136.334C320.55 106.906 256.941 108.64 193.008 140.208Z" stroke="#6BCFA5" stroke-width="0.5" stroke-miterlimit="10"/>
<path d="M191.478 142.722C128.362 178.153 90.4194 230.428 106.73 259.48C123.041 288.532 187.429 283.361 250.545 247.93C313.661 212.499 351.603 160.224 335.292 131.172C318.981 102.12 254.593 107.291 191.478 142.722Z" stroke="#6BCFA5" stroke-width="0.5" stroke-miterlimit="10"/>
<path d="M189.948 145.224C127.64 184.52 91.795 239.628 109.886 268.31C127.978 296.993 193.154 288.389 255.462 249.093C317.77 209.797 353.615 154.69 335.524 126.007C317.432 97.3249 252.256 105.929 189.948 145.224Z" stroke="#6BCFA5" stroke-width="0.5" stroke-miterlimit="10"/>
<path d="M188.432 147.739C126.932 190.895 93.1797 248.826 113.045 277.132C132.91 305.437 198.87 293.398 260.37 250.242C321.87 207.085 355.622 149.154 335.757 120.849C315.892 92.5435 249.932 104.583 188.432 147.739Z" stroke="#6BCFA5" stroke-width="0.5" stroke-miterlimit="10"/>
<path d="M186.903 150.261C126.215 197.281 94.5644 258.042 116.208 285.973C137.852 313.905 204.595 298.43 265.282 251.41C325.97 204.39 357.621 143.63 335.977 115.698C314.333 87.7666 247.59 103.241 186.903 150.261Z" stroke="#6BCFA5" stroke-width="0.5" stroke-miterlimit="10"/>
<path d="M185.376 152.769C125.503 203.65 95.9528 267.238 119.375 294.796C142.797 322.354 210.322 303.447 270.195 252.566C330.069 201.685 359.619 138.097 336.197 110.539C312.775 82.9809 245.25 101.888 185.376 152.769Z" stroke="#6BCFA5" stroke-width="0.5" stroke-miterlimit="10"/>
<path d="M183.858 155.229C124.783 209.967 97.3215 276.385 122.521 303.577C147.721 330.77 216.038 308.439 275.113 253.7C334.188 198.961 361.65 132.543 336.45 105.351C311.251 78.159 242.933 100.49 183.858 155.229Z" stroke="#6BCFA5" stroke-width="0.5" stroke-miterlimit="10"/>
</g>
</svg>
