<svg width="124" height="301" viewBox="0 0 124 301" fill="none" xmlns="http://www.w3.org/2000/svg">
<g opacity="0.9">
<path d="M0.365898 80.7926C22.3317 80.7926 40.1386 62.9269 40.1386 40.8884C40.1386 18.8499 22.3317 0.984131 0.365898 0.984131C-21.6 0.984131 -39.4068 18.8499 -39.4068 40.8884C-39.4068 62.9269 -21.6 80.7926 0.365898 80.7926Z" stroke="#6BCFA5" stroke-width="0.5" stroke-miterlimit="10"/>
<path d="M42.5996 47.4909C42.6729 24.0993 23.8316 5.0771 0.51635 5.00365C-22.7989 4.93019 -41.759 23.8333 -41.8323 47.2249C-41.9056 70.6166 -23.0642 89.6388 0.25097 89.7122C23.5662 89.7857 42.5263 70.8825 42.5996 47.4909Z" stroke="#6BCFA5" stroke-width="0.5" stroke-miterlimit="10"/>
<path d="M0.434695 99.0255C25.2922 98.982 45.4081 78.7211 45.3646 53.7714C45.3212 28.8218 25.135 8.63138 0.277442 8.67489C-24.5801 8.71839 -44.6959 28.9793 -44.6525 53.929C-44.6091 78.8786 -24.4229 99.069 0.434695 99.0255Z" stroke="#6BCFA5" stroke-width="0.5" stroke-miterlimit="10"/>
<path d="M0.468454 108.577C27.0383 108.522 48.5324 86.8587 48.4767 60.192C48.421 33.5252 26.8367 11.9528 0.266762 12.0086C-26.3031 12.0644 -47.7971 33.7273 -47.7414 60.394C-47.6857 87.0608 -26.1014 108.633 0.468454 108.577Z" stroke="#6BCFA5" stroke-width="0.5" stroke-miterlimit="10"/>
<path d="M0.365849 118.411C28.7842 118.411 51.8219 95.291 51.8219 66.7705C51.8219 38.2501 28.7842 15.1298 0.365849 15.1298C-28.0525 15.1298 -51.0902 38.2501 -51.0902 66.7705C-51.0902 95.291 -28.0525 118.411 0.365849 118.411Z" stroke="#6BCFA5" stroke-width="0.5" stroke-miterlimit="10"/>
<path d="M0.365932 128.418C30.7348 128.418 55.3537 103.712 55.3537 73.2359C55.3537 42.7596 30.7348 18.0536 0.365932 18.0536C-30.003 18.0536 -54.6218 42.7596 -54.6218 73.2359C-54.6218 103.712 -30.003 128.418 0.365932 128.418Z" stroke="#6BCFA5" stroke-width="0.5" stroke-miterlimit="10"/>
<path d="M0.365887 138.61C32.7874 138.61 59.0701 112.236 59.0701 79.7013C59.0701 47.1667 32.7874 20.7921 0.365887 20.7921C-32.0556 20.7921 -58.3384 47.1667 -58.3384 79.7013C-58.3384 112.236 -32.0556 138.61 0.365887 138.61Z" stroke="#6BCFA5" stroke-width="0.5" stroke-miterlimit="10"/>
<path d="M62.8796 86.2872C62.9459 51.6261 34.9979 23.4739 0.455896 23.4074C-34.0861 23.3409 -62.1417 51.3853 -62.2081 86.0464C-62.2745 120.708 -34.3264 148.86 0.215586 148.926C34.7576 148.993 62.8132 120.948 62.8796 86.2872Z" stroke="#6BCFA5" stroke-width="0.5" stroke-miterlimit="10"/>
<path d="M58.0435 125.824C39.7895 157.801 -0.845553 168.858 -32.6925 150.532C-64.5599 132.207 -75.5657 91.4379 -57.3117 59.461C-39.0577 27.484 1.57737 16.427 33.4448 34.7525C65.3122 53.0779 76.318 93.847 58.064 125.824H58.0435Z" stroke="#6BCFA5" stroke-width="0.5" stroke-miterlimit="10"/>
<path d="M0.365944 169.887C39.3193 169.887 70.8973 138.203 70.8973 99.118C70.8973 60.0332 39.3193 28.3488 0.365944 28.3488C-38.5874 28.3488 -70.1654 60.0332 -70.1654 99.118C-70.1654 138.203 -38.5874 169.887 0.365944 169.887Z" stroke="#6BCFA5" stroke-width="0.5" stroke-miterlimit="10"/>
<path d="M0.365875 180.491C41.5873 180.491 75.0038 146.954 75.0038 105.583C75.0038 64.213 41.5873 30.6755 0.365875 30.6755C-40.8555 30.6755 -74.2721 64.213 -74.2721 105.583C-74.2721 146.954 -40.8555 180.491 0.365875 180.491Z" stroke="#6BCFA5" stroke-width="0.5" stroke-miterlimit="10"/>
<path d="M0.365913 191.157C43.9007 191.157 79.1926 155.739 79.1926 112.049C79.1926 68.3585 43.9007 32.9404 0.365913 32.9404C-43.1689 32.9404 -78.4608 68.3585 -78.4608 112.049C-78.4608 155.739 -43.1689 191.157 0.365913 191.157Z" stroke="#6BCFA5" stroke-width="0.5" stroke-miterlimit="10"/>
<path d="M0.365784 201.885C46.248 201.885 83.4429 164.559 83.4429 118.514C83.4429 72.47 46.248 35.1437 0.365784 35.1437C-45.5164 35.1437 -82.7113 72.47 -82.7113 118.514C-82.7113 164.559 -45.5164 201.885 0.365784 201.885Z" stroke="#6BCFA5" stroke-width="0.5" stroke-miterlimit="10"/>
<path d="M0.365814 212.654C48.6068 212.654 87.7138 173.401 87.7138 124.98C87.7138 76.5587 48.6068 37.3057 0.365814 37.3057C-47.8752 37.3057 -86.9822 76.5587 -86.9822 124.98C-86.9822 173.401 -47.8752 212.654 0.365814 212.654Z" stroke="#6BCFA5" stroke-width="0.5" stroke-miterlimit="10"/>
<path d="M0.365898 223.443C50.9996 223.443 92.0464 182.254 92.0464 131.445C92.0464 80.6359 50.9996 39.447 0.365898 39.447C-50.2678 39.447 -91.3146 80.6359 -91.3146 131.445C-91.3146 182.254 -50.2678 223.443 0.365898 223.443Z" stroke="#6BCFA5" stroke-width="0.5" stroke-miterlimit="10"/>
<path d="M0.366013 234.315C53.4039 234.315 96.3995 191.162 96.3995 137.931C96.3995 84.6997 53.4039 41.5472 0.366013 41.5472C-52.6718 41.5472 -95.6675 84.6997 -95.6675 137.931C-95.6675 191.162 -52.6718 234.315 0.366013 234.315Z" stroke="#6BCFA5" stroke-width="0.5" stroke-miterlimit="10"/>
<path d="M0.365952 245.187C55.8306 245.187 100.794 200.061 100.794 144.396C100.794 88.7316 55.8306 43.6063 0.365952 43.6063C-55.0987 43.6063 -100.062 88.7316 -100.062 144.396C-100.062 200.061 -55.0987 245.187 0.365952 245.187Z" stroke="#6BCFA5" stroke-width="0.5" stroke-miterlimit="10"/>
<path d="M0.365944 256.079C58.28 256.079 105.229 208.972 105.229 150.862C105.229 92.752 58.28 45.6448 0.365944 45.6448C-57.5482 45.6448 -104.497 92.752 -104.497 150.862C-104.497 208.972 -57.5482 256.079 0.365944 256.079Z" stroke="#6BCFA5" stroke-width="0.5" stroke-miterlimit="10"/>
<path d="M0.365791 267.012C60.7294 267.012 109.664 217.905 109.664 157.327C109.664 96.7497 60.7294 47.642 0.365791 47.642C-59.9978 47.642 -108.932 96.7497 -108.932 157.327C-108.932 217.905 -59.9978 267.012 0.365791 267.012Z" stroke="#6BCFA5" stroke-width="0.5" stroke-miterlimit="10"/>
<path d="M0.36602 277.946C63.1904 277.946 114.12 226.838 114.12 163.793C114.12 100.747 63.1904 49.6393 0.36602 49.6393C-62.4584 49.6393 -113.388 100.747 -113.388 163.793C-113.388 226.838 -62.4584 277.946 0.36602 277.946Z" stroke="#6BCFA5" stroke-width="0.5" stroke-miterlimit="10"/>
<path d="M0.365829 288.921C65.6737 288.921 118.616 235.793 118.616 170.258C118.616 104.722 65.6737 51.5953 0.365829 51.5953C-64.942 51.5953 -117.885 104.722 -117.885 170.258C-117.885 235.793 -64.942 288.921 0.365829 288.921Z" stroke="#6BCFA5" stroke-width="0.5" stroke-miterlimit="10"/>
<path d="M0.365906 299.895C68.1573 299.895 123.113 244.749 123.113 176.723C123.113 108.697 68.1573 53.5515 0.365906 53.5515C-67.4255 53.5515 -122.381 108.697 -122.381 176.723C-122.381 244.749 -67.4255 299.895 0.365906 299.895Z" stroke="#6BCFA5" stroke-width="0.5" stroke-miterlimit="10"/>
</g>
</svg>
