<svg width="162" height="350" viewBox="0 0 162 350" fill="none" xmlns="http://www.w3.org/2000/svg">
<g opacity="0.9">
<path d="M143.307 256.111C117.75 256.111 97.0331 276.897 97.0331 302.537C97.0331 328.178 117.75 348.964 143.307 348.964C168.863 348.964 189.58 328.178 189.58 302.537C189.58 276.897 168.863 256.111 143.307 256.111Z" stroke="#6BCFA5" stroke-width="0.5" stroke-miterlimit="10"/>
<path d="M94.1698 294.856C94.0846 322.071 116.005 344.202 143.131 344.287C170.257 344.373 192.317 322.38 192.402 295.165C192.487 267.95 170.566 245.819 143.44 245.733C116.314 245.648 94.2551 267.641 94.1698 294.856Z" stroke="#6BCFA5" stroke-width="0.5" stroke-miterlimit="10"/>
<path d="M143.226 234.898C114.306 234.948 90.9024 258.521 90.9529 287.549C91.0034 316.576 114.489 340.067 143.409 340.016C172.33 339.965 195.734 316.393 195.683 287.365C195.632 258.338 172.147 234.847 143.226 234.898Z" stroke="#6BCFA5" stroke-width="0.5" stroke-miterlimit="10"/>
<path d="M143.187 223.785C112.275 223.85 87.2674 249.053 87.3322 280.079C87.397 311.104 112.509 336.202 143.422 336.137C174.334 336.073 199.342 310.869 199.277 279.844C199.212 248.818 174.1 223.72 143.187 223.785Z" stroke="#6BCFA5" stroke-width="0.5" stroke-miterlimit="10"/>
<path d="M143.307 212.343C110.243 212.343 83.4402 239.243 83.4402 272.425C83.4402 305.607 110.243 332.506 143.307 332.506C176.37 332.506 203.173 305.607 203.173 272.425C203.173 239.243 176.37 212.343 143.307 212.343Z" stroke="#6BCFA5" stroke-width="0.5" stroke-miterlimit="10"/>
<path d="M143.307 200.701C107.974 200.701 79.3312 229.445 79.3312 264.902C79.3312 300.36 107.974 329.104 143.307 329.104C178.639 329.104 207.282 300.36 207.282 264.902C207.282 229.445 178.639 200.701 143.307 200.701Z" stroke="#6BCFA5" stroke-width="0.5" stroke-miterlimit="10"/>
<path d="M143.306 188.843C105.586 188.843 75.0073 219.528 75.0073 257.381C75.0073 295.233 105.586 325.918 143.306 325.918C181.027 325.918 211.606 295.233 211.606 257.381C211.606 219.528 181.027 188.843 143.306 188.843Z" stroke="#6BCFA5" stroke-width="0.5" stroke-miterlimit="10"/>
<path d="M70.5753 249.718C70.498 290.044 103.014 322.798 143.202 322.875C183.39 322.953 216.031 290.325 216.108 249.998C216.185 209.672 183.669 176.918 143.481 176.841C103.294 176.763 70.6525 209.392 70.5753 249.718Z" stroke="#6BCFA5" stroke-width="0.5" stroke-miterlimit="10"/>
<path d="M76.2017 203.719C97.4392 166.516 144.716 153.652 181.768 174.972C218.844 196.293 231.649 243.726 210.411 280.929C189.174 318.132 141.897 330.997 104.821 309.676C67.7449 288.355 54.9403 240.923 76.1778 203.719L76.2017 203.719Z" stroke="#6BCFA5" stroke-width="0.5" stroke-miterlimit="10"/>
<path d="M143.307 152.454C97.9863 152.454 61.2471 189.317 61.2471 234.79C61.2471 280.263 97.9863 317.126 143.306 317.126C188.627 317.126 225.366 280.263 225.366 234.79C225.366 189.317 188.627 152.454 143.307 152.454Z" stroke="#6BCFA5" stroke-width="0.5" stroke-miterlimit="10"/>
<path d="M143.307 140.117C95.3477 140.117 56.4693 179.136 56.4693 227.268C56.4693 275.4 95.3477 314.419 143.307 314.419C191.265 314.419 230.144 275.4 230.144 227.268C230.144 179.136 191.265 140.117 143.307 140.117Z" stroke="#6BCFA5" stroke-width="0.5" stroke-miterlimit="10"/>
<path d="M143.306 127.708C92.6561 127.708 51.5958 168.915 51.5958 219.746C51.5958 270.577 92.6561 311.784 143.306 311.784C193.957 311.784 235.017 270.577 235.017 219.746C235.017 168.915 193.957 127.708 143.306 127.708Z" stroke="#6BCFA5" stroke-width="0.5" stroke-miterlimit="10"/>
<path d="M143.307 115.227C89.9251 115.227 46.6509 158.654 46.6509 212.224C46.6509 265.794 89.9251 309.221 143.307 309.221C196.688 309.221 239.962 265.794 239.962 212.224C239.962 158.654 196.688 115.227 143.307 115.227Z" stroke="#6BCFA5" stroke-width="0.5" stroke-miterlimit="10"/>
<path d="M143.306 102.698C87.1807 102.698 41.6818 148.366 41.6818 204.701C41.6818 261.037 87.1807 306.705 143.306 306.705C199.432 306.705 244.931 261.037 244.931 204.701C244.931 148.366 199.432 102.698 143.306 102.698Z" stroke="#6BCFA5" stroke-width="0.5" stroke-miterlimit="10"/>
<path d="M143.307 90.1448C84.3969 90.1448 36.6412 138.066 36.6412 197.18C36.6412 256.293 84.3969 304.214 143.307 304.214C202.216 304.214 249.972 256.293 249.972 197.18C249.972 138.066 202.216 90.1448 143.307 90.1448Z" stroke="#6BCFA5" stroke-width="0.5" stroke-miterlimit="10"/>
<path d="M143.306 77.4961C81.5997 77.4961 31.5766 127.702 31.5766 189.633C31.5766 251.565 81.5997 301.771 143.306 301.771C205.013 301.771 255.036 251.565 255.036 189.633C255.036 127.702 205.013 77.4961 143.306 77.4961Z" stroke="#6BCFA5" stroke-width="0.5" stroke-miterlimit="10"/>
<path d="M143.306 64.8475C78.7764 64.8475 26.4644 117.348 26.4644 182.111C26.4644 246.874 78.7764 299.375 143.306 299.375C207.837 299.375 260.149 246.874 260.149 182.111C260.149 117.348 207.837 64.8475 143.306 64.8475Z" stroke="#6BCFA5" stroke-width="0.5" stroke-miterlimit="10"/>
<path d="M143.306 52.1749C75.9265 52.1749 21.3043 106.982 21.3043 174.589C21.3043 242.197 75.9265 297.004 143.306 297.004C210.686 297.004 265.309 242.197 265.309 174.589C265.309 106.982 210.686 52.175 143.306 52.1749Z" stroke="#6BCFA5" stroke-width="0.5" stroke-miterlimit="10"/>
<path d="M143.307 39.4542C73.0769 39.4542 16.1445 96.5884 16.1445 167.067C16.1444 237.546 73.0769 294.68 143.307 294.68C213.536 294.68 270.469 237.546 270.469 167.067C270.469 96.5884 213.536 39.4542 143.307 39.4542Z" stroke="#6BCFA5" stroke-width="0.5" stroke-miterlimit="10"/>
<path d="M143.306 26.7337C70.2137 26.7337 10.9603 86.1953 10.9602 159.545C10.9602 232.894 70.2136 292.356 143.306 292.356C216.399 292.356 275.653 232.894 275.653 159.545C275.653 86.1953 216.399 26.7337 143.306 26.7337Z" stroke="#6BCFA5" stroke-width="0.5" stroke-miterlimit="10"/>
<path d="M143.307 13.9651C67.3245 13.9651 5.72872 75.7756 5.72871 152.023C5.7287 228.27 67.3244 290.08 143.307 290.08C219.289 290.08 280.885 228.27 280.885 152.023C280.885 75.7756 219.289 13.9651 143.307 13.9651Z" stroke="#6BCFA5" stroke-width="0.5" stroke-miterlimit="10"/>
<path d="M143.307 1.19661C64.435 1.19661 0.496937 65.3559 0.49693 144.5C0.496923 223.645 64.435 287.804 143.307 287.804C222.178 287.804 286.116 223.645 286.116 144.5C286.116 65.3559 222.178 1.19662 143.307 1.19661Z" stroke="#6BCFA5" stroke-width="0.5" stroke-miterlimit="10"/>
</g>
</svg>
